<svg width="213" height="26" viewBox="0 0 213 26" fill="none" xmlns="http://www.w3.org/2000/svg">
<path d="M175.851 0.219238H210.851C211.074 0.223529 211.295 0.271843 211.499 0.361328C211.704 0.450813 211.889 0.579684 212.044 0.740723C212.199 0.901762 212.32 1.09176 212.401 1.2998C212.483 1.50785 212.522 1.72978 212.518 1.95312V23.6274C212.522 23.8508 212.483 24.0727 212.401 24.2808C212.32 24.4888 212.199 24.6788 212.044 24.8398C211.889 25.0009 211.704 25.1298 211.499 25.2192C211.295 25.3087 211.074 25.357 210.851 25.3613H175.851C175.628 25.357 175.407 25.3087 175.203 25.2192C174.998 25.1298 174.813 25.0009 174.658 24.8398C174.503 24.6788 174.382 24.4888 174.3 24.2808C174.219 24.0727 174.179 23.8508 174.184 23.6274V1.95312C174.179 1.72978 174.219 1.50785 174.3 1.2998C174.382 1.09176 174.503 0.901762 174.658 0.740723C174.813 0.579684 174.998 0.450813 175.203 0.361328C175.407 0.271843 175.628 0.223529 175.851 0.219238Z" fill="url(#paint0_linear_8_527)"/>
<path d="M204.156 17.4453L203.904 16.1504H201.17L200.721 17.4453H198.479L201.686 9.38037C201.761 9.18038 201.897 9.00935 202.076 8.89258C202.255 8.7758 202.466 8.71948 202.679 8.73145H204.408L206.13 17.4463L204.156 17.4453ZM202.92 11.1011L201.79 14.3623H203.556L202.92 11.1011ZM195.633 11.2153C195.633 12.1673 198.633 12.3711 198.633 14.5601C198.633 16.6681 196.418 17.4434 194.951 17.4434C194.117 17.4571 193.29 17.2949 192.523 16.9673L192.843 15.0771C193.723 15.7971 196.392 16.0024 196.392 14.8594C196.392 13.7164 193.417 13.6892 193.417 11.5132C193.417 9.20118 195.951 8.7251 197.017 8.7251C197.677 8.74202 198.33 8.86616 198.951 9.09229L198.644 10.9014C197.726 10.3894 195.631 10.2672 195.631 11.2192L195.633 11.2153ZM189.049 17.4453L190.393 8.72998H192.544L191.2 17.4453H189.049ZM183.892 17.4453L182.026 9.8833C182.356 10.0892 182.67 10.3185 182.967 10.5693C183.864 11.3369 184.547 12.3238 184.948 13.4341L185.191 14.7251L187.242 8.73145H189.557L186.135 17.4463L183.892 17.4453ZM180.098 8.96924L179.998 8.93945L180.098 8.96924ZM179.878 8.9043L179.83 8.89111L179.878 8.9043ZM180.407 9.07422L180.279 9.0293L180.407 9.07422ZM181.898 9.79932C181.831 9.75798 181.765 9.71818 181.698 9.68018C181.762 9.72418 181.828 9.7622 181.896 9.8042L181.898 9.79932ZM181.384 9.50928C181.326 9.47928 181.266 9.44743 181.209 9.41943C181.264 9.45243 181.323 9.48416 181.382 9.51416L181.384 9.50928ZM180.849 9.25244L180.731 9.20117L180.849 9.25244Z" fill="#494CA3"/>
<path d="M184.945 13.4382L184.221 9.52025C184.183 9.28411 184.056 9.07141 183.867 8.92553C183.677 8.77964 183.439 8.71191 183.201 8.73559H179.811L179.771 8.88256C180.948 9.19995 182.039 9.77741 182.963 10.5725C183.861 11.3402 184.544 12.3275 184.945 13.4382Z" fill="#FFC000"/>
<path d="M117.798 0.380371H152.533C152.982 0.392426 153.408 0.581385 153.717 0.90625C154.027 1.23112 154.196 1.66539 154.187 2.11426V23.7871C154.196 24.236 154.027 24.6703 153.717 24.9951C153.408 25.32 152.982 25.5089 152.533 25.521H117.798C117.349 25.5089 116.923 25.32 116.613 24.9951C116.304 24.6703 116.135 24.236 116.144 23.7871V2.11523C116.135 1.6662 116.303 1.23182 116.613 0.906738C116.923 0.581656 117.349 0.392426 117.798 0.380371Z" fill="#F1F1F1"/>
<path d="M116.556 24.9302C116.29 24.6094 116.146 24.2055 116.147 23.7891V2.11523C116.137 1.6662 116.306 1.23182 116.616 0.906738C116.926 0.581656 117.352 0.392426 117.801 0.380371H152.535C152.956 0.381317 153.361 0.547832 153.661 0.844238L116.561 24.9302H116.556Z" fill="white" fill-opacity="0.73"/>
<path d="M130.792 18.3453L132.092 15.9952L131.368 10.3511H133.139L133.425 13.6915L135.158 10.3511H136.986L132.777 18.3453H130.792ZM125.239 14.1295C125.512 12.7555 126.839 12.3194 128.801 12.3194C128.918 11.7084 128.529 11.5552 127.867 11.5782C127.283 11.6065 126.709 11.7397 126.173 11.9713L126.328 10.5982C126.972 10.3981 127.639 10.2807 128.313 10.2491C129.539 10.2271 130.902 10.6185 130.591 12.2115L129.832 15.9615H128.061L128.177 15.3931C127.971 15.6053 127.726 15.7746 127.454 15.8907C127.182 16.0068 126.89 16.0675 126.595 16.0694C125.756 16.0654 125.009 15.5191 125.24 14.1251L125.239 14.1295ZM127.05 14.0421C126.994 14.121 126.963 14.2145 126.959 14.3111C126.955 14.4077 126.979 14.5034 127.029 14.5865C127.078 14.6695 127.15 14.7366 127.237 14.7794C127.324 14.8221 127.421 14.8385 127.517 14.8272C127.736 14.837 127.951 14.7673 128.123 14.6309C128.295 14.4946 128.412 14.3011 128.452 14.0855C128.475 13.917 128.508 13.75 128.552 13.5855H128.104C127.904 13.567 127.703 13.5987 127.519 13.6778C127.335 13.7569 127.174 13.8806 127.05 14.0382V14.0421ZM119.139 15.9615L120.603 8.78913H123.91C124.205 8.78652 124.496 8.85475 124.759 8.98787C125.022 9.12098 125.249 9.31518 125.422 9.55427C125.594 9.79336 125.707 10.0703 125.75 10.3619C125.794 10.6535 125.766 10.9511 125.671 11.2301C125.576 11.8859 125.247 12.4853 124.745 12.918C124.243 13.3507 123.602 13.5881 122.939 13.5855H121.556L121.081 15.9615H119.139ZM121.832 12.2115H122.742C123.008 12.1903 123.26 12.0828 123.46 11.9058C123.66 11.7289 123.797 11.4917 123.851 11.2301C123.893 11.1224 123.908 11.0065 123.896 10.8917C123.883 10.7768 123.843 10.6665 123.779 10.5704C123.715 10.4742 123.629 10.3952 123.528 10.3394C123.427 10.2837 123.313 10.2528 123.198 10.2501H122.248L121.832 12.2115Z" fill="#3284AE"/>
<path d="M142.456 14.125C142.732 12.751 144.073 12.3164 146.062 12.3164C146.2 11.7044 145.806 11.5532 145.136 11.5752C144.54 11.6059 143.953 11.7385 143.402 11.9673L143.56 10.5942C144.22 10.3966 144.901 10.2796 145.589 10.2461C146.83 10.2241 148.189 10.615 147.874 12.207L147.106 15.9561H145.333L145.451 15.3901C145.021 15.8193 144.44 16.0624 143.833 16.0664C142.975 16.0654 142.219 15.52 142.456 14.125ZM144.289 14.0381C144.235 14.1197 144.206 14.2152 144.205 14.313C144.203 14.4108 144.231 14.5066 144.283 14.5894C144.335 14.6722 144.409 14.7383 144.498 14.7798C144.586 14.8212 144.685 14.8364 144.782 14.8232C145 14.833 145.214 14.7631 145.384 14.627C145.554 14.4909 145.669 14.2976 145.708 14.083C145.747 13.908 145.767 13.755 145.808 13.583H145.375C145.17 13.5623 144.963 13.5931 144.773 13.6724C144.583 13.7516 144.415 13.8769 144.286 14.0371L144.289 14.0381ZM147.925 15.9561L149.391 8.76221H151.211L149.726 15.9561H147.925ZM136.356 15.9561L137.818 8.78516H141.118C141.412 8.78436 141.702 8.85365 141.964 8.9873C142.225 9.12096 142.452 9.31516 142.623 9.55371C142.795 9.79226 142.908 10.0682 142.951 10.3589C142.995 10.6496 142.969 10.9466 142.875 11.2251C142.78 11.8833 142.449 12.4845 141.944 12.9175C141.439 13.3505 140.795 13.586 140.13 13.5801H138.767L138.273 15.9551L136.356 15.9561ZM139.043 12.207H139.931C140.199 12.1864 140.454 12.08 140.657 11.9033C140.86 11.7266 141.001 11.489 141.058 11.2261C141.098 11.117 141.111 11 141.096 10.8848C141.082 10.7695 141.04 10.6593 140.974 10.5635C140.909 10.4676 140.821 10.3892 140.719 10.334C140.617 10.2788 140.503 10.2484 140.387 10.2461H139.439L139.043 12.207Z" fill="#3CA9C7"/>
<path d="M59.6148 0.219238H94.5877C95.0385 0.228428 95.4672 0.416032 95.7794 0.741211C96.0916 1.06639 96.2619 1.5024 96.2528 1.95312V23.6274C96.2619 24.0782 96.0916 24.5137 95.7794 24.8389C95.4672 25.164 95.0385 25.3521 94.5877 25.3613H59.6148C59.1641 25.3521 58.7354 25.164 58.4232 24.8389C58.111 24.5137 57.9407 24.0782 57.9498 23.6274V1.95312C57.9407 1.5024 58.111 1.06639 58.4232 0.741211C58.7354 0.416032 59.1641 0.228428 59.6148 0.219238Z" fill="#5870BE"/>
<path d="M74.7048 12.786C74.7052 11.0102 75.2322 9.27451 76.219 7.79821C77.2058 6.3219 78.6082 5.17138 80.2489 4.49205C81.8896 3.81273 83.6948 3.6352 85.4364 3.9818C87.178 4.3284 88.7778 5.1836 90.0333 6.43932C91.2889 7.69503 92.1439 9.29485 92.4904 11.0365C92.8368 12.7781 92.6589 14.5834 91.9794 16.224C91.2999 17.8646 90.1493 19.2666 88.6729 20.2533C87.1964 21.2399 85.4606 21.7668 83.6848 21.767C82.5055 21.767 81.3376 21.5347 80.248 21.0834C79.1585 20.632 78.1685 19.9706 77.3346 19.1366C76.5007 18.3026 75.8393 17.3126 75.3881 16.223C74.9368 15.1334 74.7047 13.9654 74.7048 12.786Z" fill="#FFAF38"/>
<path d="M69.9258 21.7651C68.3947 21.7649 66.8891 21.3733 65.552 20.6274C64.2149 19.8815 63.0907 18.8061 62.2862 17.5034C61.4818 16.2007 61.0237 14.7141 60.9557 13.1845C60.8876 11.655 61.2117 10.1331 61.8973 8.76411C62.5829 7.39509 63.6071 6.22448 64.8727 5.36275C66.1382 4.50101 67.603 3.97696 69.128 3.84077C70.653 3.70459 72.1876 3.96057 73.5858 4.58442C74.984 5.20828 76.1995 6.17934 77.1168 7.40523H75.9168V8.00532H77.5298C77.6508 8.19632 77.7648 8.39419 77.8708 8.59419H75.3167V9.19429H78.1598C78.2478 9.39429 78.3268 9.59439 78.3968 9.79439H74.7168V10.394H78.5848C79.071 12.168 79.004 14.0483 78.3928 15.7832H74.7168V16.3833H78.1557C78.0657 16.5903 77.9688 16.7831 77.8708 16.9741H75.3167V17.5742H77.5228C77.3898 17.7842 77.2508 17.9853 77.1098 18.1743H75.9168V18.7744H76.6168C75.774 19.7147 74.7426 20.467 73.5898 20.9824C72.437 21.4977 71.1885 21.7642 69.9258 21.7651Z" fill="#E63737"/>
<path d="M60.0744 14.4381L60.6211 10.1781L61.4696 10.287L62.0909 13.4326C62.1478 13.7255 62.1887 13.9444 62.2134 14.0893C62.2817 13.9406 62.3865 13.7226 62.5277 13.4355L63.928 10.6024L64.6864 10.6998L64.1397 14.9598L63.5963 14.89L64.0539 11.3245L62.3584 14.7312L61.8499 14.6659L61.0832 10.8813L60.6178 14.5078L60.0744 14.4381ZM67.045 14.9457C66.8302 15.0855 66.6283 15.1777 66.4395 15.2224C66.2525 15.2673 66.0564 15.2766 65.851 15.2503C65.512 15.2068 65.262 15.091 65.1011 14.903C64.9403 14.713 64.8765 14.4892 64.9096 14.2315C64.929 14.0804 64.9805 13.9472 65.0642 13.8319C65.1501 13.715 65.2532 13.6258 65.3733 13.5644C65.4953 13.5033 65.6286 13.4623 65.773 13.4415C65.8792 13.4275 66.0375 13.4212 66.248 13.4227C66.6768 13.4265 66.9955 13.4063 67.2039 13.3622C67.2151 13.2908 67.2219 13.2454 67.2244 13.226C67.2517 13.0129 67.2216 12.8564 67.134 12.7566C67.0155 12.6213 66.8245 12.5367 66.561 12.5029C66.315 12.4713 66.1273 12.4915 65.9979 12.5635C65.8708 12.6338 65.7651 12.7749 65.6808 12.9866L65.1783 12.8512C65.2529 12.6382 65.352 12.4718 65.4757 12.3518C65.5997 12.2298 65.767 12.146 65.9777 12.1001C66.1886 12.0524 66.4267 12.0455 66.6921 12.0796C66.9556 12.1134 67.1657 12.1719 67.3224 12.255C67.4791 12.3381 67.5901 12.4321 67.6554 12.537C67.721 12.6399 67.7601 12.765 67.7727 12.9124C67.7787 13.0037 67.7667 13.1656 67.7369 13.3981L67.6474 14.0955C67.585 14.5818 67.5561 14.8912 67.5608 15.0237C67.5676 15.1545 67.5964 15.2833 67.6471 15.4099L67.1008 15.3398C67.0605 15.2243 67.0419 15.093 67.045 14.9457ZM67.1514 13.7719C66.9516 13.8251 66.6583 13.8544 66.2717 13.8599C66.0527 13.8633 65.8961 13.8786 65.802 13.906C65.708 13.9333 65.6318 13.9816 65.5737 14.0509C65.5158 14.1183 65.4811 14.1975 65.4694 14.2886C65.4515 14.4281 65.4889 14.551 65.5815 14.6574C65.6762 14.7641 65.8252 14.8305 66.0286 14.8566C66.2301 14.8824 66.4148 14.8618 66.5829 14.7948C66.7513 14.7258 66.8821 14.6196 66.9754 14.476C67.0467 14.365 67.0972 14.1942 67.1268 13.9637L67.1514 13.7719ZM68.2041 14.545L68.7318 14.53C68.7342 14.7411 68.7942 14.9102 68.9118 15.0376C69.0313 15.1651 69.2102 15.2442 69.4485 15.2748C69.6887 15.3056 69.8731 15.2801 70.0018 15.1981C70.1307 15.1142 70.2036 15.0064 70.2205 14.8747C70.2357 14.7565 70.1963 14.657 70.1023 14.576C70.0366 14.5203 69.866 14.4383 69.5904 14.3301C69.2192 14.184 68.9636 14.0665 68.8234 13.9776C68.6853 13.8871 68.5855 13.7748 68.5239 13.6409C68.4645 13.5053 68.4445 13.3619 68.4639 13.2108C68.4816 13.0733 68.5289 12.9504 68.6058 12.8421C68.6849 12.7321 68.7836 12.6453 68.9021 12.5818C68.9911 12.5322 69.108 12.496 69.2527 12.4732C69.3996 12.4487 69.5534 12.4468 69.7142 12.4674C69.9564 12.4985 70.164 12.5606 70.3372 12.6537C70.5123 12.7471 70.6357 12.8594 70.7075 12.9907C70.7795 13.1201 70.8191 13.2866 70.8265 13.4904L70.3061 13.4945C70.3032 13.3326 70.2513 13.2 70.1504 13.0964C70.0514 12.9931 69.9002 12.9284 69.6968 12.9023C69.4566 12.8715 69.2801 12.8892 69.1672 12.9555C69.0543 13.0217 68.9911 13.1081 68.9774 13.2147C68.9687 13.2825 68.9822 13.3462 69.0178 13.4059C69.0532 13.4676 69.1141 13.5227 69.2004 13.5712C69.2502 13.5972 69.3985 13.6616 69.6453 13.7641C70.0026 13.9104 70.2498 14.0248 70.3869 14.1074C70.5262 14.1883 70.6298 14.2941 70.6977 14.4249C70.7656 14.5557 70.7881 14.7103 70.7652 14.8885C70.7428 15.0628 70.6704 15.2209 70.5478 15.3627C70.4274 15.5028 70.2659 15.6032 70.0631 15.6638C69.8607 15.7225 69.6383 15.7363 69.3962 15.7052C68.9952 15.6538 68.6998 15.5312 68.51 15.3375C68.3222 15.144 68.2202 14.8799 68.2041 14.545ZM72.4727 15.5536L72.489 16.0254C72.3378 16.0375 72.2041 16.036 72.0878 16.0211C71.898 15.9968 71.7546 15.9478 71.6577 15.8744C71.5608 15.8009 71.4973 15.713 71.4671 15.6106C71.4371 15.5064 71.4423 15.2973 71.4826 14.9835L71.7104 13.208L71.3269 13.1588L71.3791 12.752L71.7626 12.8012L71.8607 12.037L72.4211 11.7899L72.2828 12.8679L72.8087 12.9354L72.7565 13.3423L72.2306 13.2748L71.999 15.0793C71.9798 15.2285 71.9763 15.3255 71.9882 15.3703C72.0021 15.4154 72.0278 15.4532 72.0653 15.4836C72.1046 15.5143 72.1631 15.5346 72.2406 15.5445C72.2987 15.552 72.3761 15.555 72.4727 15.5536ZM75.1671 15.3648L75.699 15.501C75.5733 15.8058 75.3839 16.0306 75.131 16.1754C74.8781 16.3201 74.5725 16.3695 74.2141 16.3235C73.7627 16.2656 73.4221 16.0811 73.1923 15.77C72.9646 15.4572 72.883 15.05 72.9474 14.5482C73.014 14.0291 73.1994 13.6433 73.5035 13.3909C73.8076 13.1385 74.1728 13.0396 74.599 13.0943C75.0116 13.1473 75.3307 13.331 75.5561 13.6454C75.7816 13.9599 75.8617 14.3719 75.7963 14.8814C75.7923 14.9124 75.7854 14.9587 75.7755 15.0205L73.474 14.7251C73.4499 15.0666 73.5125 15.3385 73.6618 15.5408C73.8111 15.7431 74.0145 15.8608 74.2722 15.8938C74.464 15.9185 74.6341 15.8891 74.7827 15.8058C74.9312 15.7224 75.0594 15.5754 75.1671 15.3648ZM73.5583 14.2988L75.2815 14.5199C75.2915 14.2574 75.2507 14.0542 75.1588 13.9105C75.0181 13.6876 74.815 13.5592 74.5496 13.5251C74.3094 13.4943 74.0966 13.5487 73.9113 13.6884C73.728 13.8283 73.6103 14.0317 73.5583 14.2988ZM76.2339 16.5119L76.6299 13.4258L77.1007 13.4862L77.0407 13.9541C77.1889 13.7506 77.3178 13.6204 77.4275 13.5636C77.5391 13.5071 77.6559 13.4866 77.778 13.5023C77.9543 13.5249 78.1263 13.6041 78.2939 13.7398L78.0515 14.202C77.9333 14.11 77.8103 14.0558 77.6825 14.0394C77.5682 14.0247 77.461 14.0464 77.361 14.1045C77.2613 14.1606 77.1842 14.2472 77.1298 14.3643C77.0478 14.5428 76.9926 14.7425 76.9643 14.9633L76.757 16.579L76.2339 16.5119ZM81.5195 15.672L82.065 15.8867C81.8874 16.3345 81.629 16.6607 81.2896 16.8653C80.9524 17.0682 80.5621 17.1411 80.1184 17.0842C79.6593 17.0253 79.2973 16.8843 79.0326 16.6613C78.77 16.4366 78.5859 16.1373 78.4803 15.7634C78.3766 15.3897 78.3509 14.9995 78.4031 14.5927C78.46 14.149 78.5939 13.7734 78.8047 13.4657C79.0177 13.1563 79.291 12.9364 79.6248 12.8059C79.9608 12.6738 80.3167 12.6318 80.6925 12.6801C81.1187 12.7347 81.4631 12.8892 81.7259 13.1435C81.9886 13.3978 82.1519 13.7288 82.2157 14.1368L81.6439 14.1963C81.5849 13.8737 81.4705 13.6296 81.3008 13.4641C81.131 13.2985 80.9037 13.1975 80.619 13.1609C80.2916 13.1189 80.0074 13.1622 79.7664 13.2908C79.5274 13.4196 79.3462 13.611 79.2231 13.865C79.1001 14.117 79.0207 14.3834 78.9846 14.6643C78.9381 15.0266 78.9498 15.3501 79.0196 15.6347C79.0916 15.9176 79.2304 16.1403 79.436 16.3025C79.6416 16.4648 79.8742 16.5626 80.1338 16.5959C80.4496 16.6364 80.7286 16.5797 80.9709 16.4256C81.2132 16.2716 81.3961 16.0204 81.5195 15.672ZM84.5848 17.1966C84.3699 17.3364 84.1681 17.4287 83.9792 17.4733C83.7923 17.5183 83.5961 17.5276 83.3908 17.5012C83.0518 17.4577 82.8018 17.3419 82.6408 17.1539C82.4801 16.9639 82.4163 16.7401 82.4493 16.4825C82.4687 16.3314 82.5203 16.1982 82.604 16.0829C82.6899 15.9659 82.7929 15.8767 82.913 15.8154C83.0351 15.7542 83.1683 15.7132 83.3128 15.6924C83.4189 15.6784 83.5773 15.6722 83.7878 15.6736C84.2166 15.6774 84.5352 15.6573 84.7437 15.6131C84.7548 15.5417 84.7616 15.4963 84.7641 15.4769C84.7915 15.2638 84.7613 15.1074 84.6737 15.0075C84.5552 14.8722 84.3642 14.7876 84.1008 14.7538C83.8547 14.7222 83.6671 14.7425 83.5377 14.8145C83.4105 14.8848 83.3048 15.0258 83.2205 15.2375L82.718 15.1021C82.7926 14.8892 82.8918 14.7227 83.0155 14.6027C83.1394 14.4808 83.3067 14.3969 83.5174 14.3511C83.7283 14.3033 83.9665 14.2965 84.2319 14.3305C84.4954 14.3643 84.7054 14.4228 84.8622 14.5059C85.0189 14.5891 85.1299 14.6831 85.1952 14.7879C85.2607 14.8909 85.2998 15.016 85.3124 15.1633C85.3184 15.2547 85.3065 15.4166 85.2767 15.6491L85.1872 16.3465C85.1248 16.8327 85.0959 17.1421 85.1005 17.2746C85.1074 17.4055 85.1361 17.5342 85.1868 17.6608L84.6405 17.5907C84.6002 17.4753 84.5816 17.3439 84.5848 17.1966ZM84.6911 16.0229C84.4913 16.076 84.1981 16.1053 83.8114 16.1108C83.5924 16.1142 83.4359 16.1296 83.3418 16.1569C83.2477 16.1842 83.1716 16.2325 83.1135 16.3019C83.0556 16.3693 83.0208 16.4485 83.0091 16.5395C82.9912 16.679 83.0286 16.802 83.1213 16.9084C83.2159 17.015 83.3649 17.0814 83.5683 17.1075C83.7698 17.1334 83.9546 17.1128 84.1227 17.0457C84.291 16.9768 84.4218 16.8705 84.5151 16.7269C84.5864 16.6159 84.6369 16.4452 84.6665 16.2147L84.6911 16.0229ZM85.829 17.7432L86.2251 14.6572L86.6958 14.7176L86.6358 15.1855C86.784 14.982 86.9129 14.8518 87.0226 14.795C87.1342 14.7384 87.2511 14.718 87.3731 14.7337C87.5494 14.7563 87.7214 14.8355 87.8891 14.9712L87.6466 15.4333C87.5285 15.3414 87.4055 15.2872 87.2776 15.2708C87.1633 15.2561 87.0562 15.2778 86.9562 15.3359C86.8564 15.392 86.7793 15.4786 86.7249 15.5957C86.6429 15.7742 86.5878 15.9739 86.5594 16.1947L86.3521 17.8104L85.829 17.7432ZM89.8188 18.2553L89.8688 17.8659C89.6338 18.1468 89.3265 18.263 88.9468 18.2142C88.7008 18.1827 88.4828 18.0858 88.2929 17.9236C88.105 17.7616 87.9694 17.5522 87.8862 17.2954C87.8051 17.0369 87.7849 16.7497 87.8254 16.434C87.8649 16.1259 87.9521 15.8536 88.0868 15.6168C88.2218 15.3782 88.4006 15.2052 88.6231 15.0979C88.8456 14.9906 89.0837 14.9532 89.3375 14.9858C89.5235 15.0096 89.684 15.0706 89.8191 15.1687C89.9544 15.2648 90.0596 15.3817 90.1345 15.5193L90.3306 13.9908L90.8508 14.0575L90.3041 18.3175L89.8188 18.2553ZM88.363 16.503C88.3123 16.8982 88.3577 17.2043 88.4992 17.4213C88.6407 17.6384 88.8247 17.7614 89.0514 17.7905C89.28 17.8198 89.4856 17.7517 89.6684 17.5861C89.8533 17.4189 89.9703 17.1434 90.0196 16.7599C90.0737 16.3375 90.0322 16.0171 89.8948 15.7987C89.7574 15.5802 89.5696 15.4556 89.3313 15.4251C89.0989 15.3952 88.892 15.4652 88.7107 15.6349C88.5314 15.8048 88.4155 16.0942 88.363 16.503Z" fill="white"/>
<path d="M1.74791 0.416992H36.73C36.9532 0.421413 37.1733 0.470028 37.3779 0.55957C37.5825 0.649113 37.7674 0.777939 37.9221 0.938965C38.0768 1.09999 38.1984 1.29006 38.2796 1.49805C38.3609 1.70603 38.4004 1.92811 38.3959 2.15137V23.8271C38.4047 24.2779 38.2342 24.7136 37.9217 25.0386C37.6093 25.3636 37.1807 25.5511 36.73 25.5601H1.74791C1.29718 25.5511 0.868437 25.3636 0.556011 25.0386C0.243585 24.7136 0.07305 24.2779 0.0818895 23.8271V2.15137C0.0773796 1.92811 0.116931 1.70603 0.198222 1.49805C0.279514 1.29006 0.400933 1.09999 0.555644 0.938965C0.710355 0.777939 0.895269 0.649113 1.09983 0.55957C1.3044 0.470028 1.52464 0.421413 1.74791 0.416992Z" fill="#353A40"/>
<path d="M22.7709 16.9813C22.5065 16.8469 22.2891 16.6352 22.147 16.3749C21.9765 16.0562 21.8937 15.6984 21.907 15.3373C21.8923 15.0911 21.9266 14.8445 22.0079 14.6117C22.0893 14.3789 22.2162 14.1647 22.381 13.9813C22.5562 13.8144 22.7638 13.6852 22.9911 13.6019C23.2183 13.5187 23.4603 13.4827 23.7019 13.497C23.9453 13.4813 24.1895 13.5155 24.4192 13.5975C24.6489 13.6796 24.8595 13.8077 25.038 13.974C25.2013 14.154 25.3268 14.3648 25.4073 14.5941C25.4879 14.8234 25.5218 15.0664 25.507 15.309C25.5218 15.6606 25.4532 16.0108 25.3069 16.3309C25.1747 16.5915 24.9689 16.8076 24.715 16.952C24.4176 17.1093 24.0841 17.186 23.7479 17.1742C23.4117 17.1863 23.0772 17.1204 22.7709 16.9813ZM23.1769 14.5643C23.048 14.8027 22.9805 15.0693 22.9805 15.3402C22.9805 15.6112 23.048 15.8778 23.1769 16.1161C23.2449 16.1899 23.3275 16.2486 23.4194 16.2889C23.5113 16.3292 23.6106 16.3505 23.7109 16.3505C23.8113 16.3505 23.9105 16.3292 24.0024 16.2889C24.0944 16.2486 24.1769 16.1899 24.2449 16.1161C24.3965 15.8688 24.4632 15.5786 24.4349 15.2899C24.4565 15.0294 24.3857 14.7697 24.235 14.556C24.1689 14.4795 24.0862 14.4193 23.9934 14.3793C23.9006 14.3393 23.8 14.3206 23.699 14.3251C23.5995 14.3223 23.5007 14.3422 23.4102 14.3837C23.3197 14.4251 23.2398 14.4872 23.1769 14.5643ZM13.2649 17.1381C13.0906 17.1209 12.921 17.0714 12.7649 16.9921C12.6233 16.9148 12.4984 16.8104 12.397 16.6849C12.2932 16.5659 12.2152 16.427 12.168 16.2763C12.1066 16.0819 12.073 15.8799 12.068 15.6762V13.558H13.1389V15.726C13.1341 15.8084 13.1457 15.8912 13.173 15.9691C13.2003 16.047 13.2428 16.1186 13.298 16.1801C13.4193 16.2843 13.5739 16.3417 13.7339 16.3417C13.8939 16.3417 14.0486 16.2843 14.1699 16.1801C14.2251 16.118 14.2674 16.0456 14.2946 15.9672C14.3217 15.8887 14.3329 15.8059 14.3279 15.723V13.5551H15.3989V15.6732C15.3995 15.8774 15.3657 16.0803 15.299 16.2733C15.2373 16.457 15.1347 16.6239 14.9989 16.7621C14.8791 16.8927 14.732 16.9949 14.568 17.0619C14.3267 17.1459 14.0723 17.186 13.8169 17.1801C13.6326 17.1764 13.4487 17.1621 13.266 17.1371L13.2649 17.1381ZM28.4039 17.1141L27.1039 15.162V17.1141H26.0939V13.559H27.0939L28.403 15.5253V13.559H29.4149V17.1141H28.4039ZM18.4259 17.1141L17.126 15.162V17.1141H16.116V13.559H17.116L18.424 15.5253V13.559H19.4359V17.1141H18.4259ZM20.1959 17.1049V13.556H21.2759V17.1049H20.1959ZM11.991 12.1239C11.7594 11.884 11.622 11.5691 11.6039 11.2362L12.626 11.1713C12.6367 11.3099 12.6827 11.4432 12.7599 11.559C12.8156 11.6306 12.8878 11.6877 12.9703 11.7255C13.0529 11.7633 13.1432 11.7809 13.2339 11.7763C13.3619 11.7848 13.4886 11.7449 13.589 11.6649C13.6265 11.6352 13.657 11.5976 13.6781 11.5546C13.6992 11.5116 13.7105 11.4643 13.7111 11.4164C13.7116 11.3685 13.7015 11.3212 13.6814 11.2777C13.6613 11.2342 13.6318 11.1956 13.595 11.1649C13.4287 11.0572 13.241 10.9868 13.0449 10.9589C12.6795 10.8977 12.3341 10.7499 12.038 10.5272C11.9403 10.4422 11.8627 10.3363 11.8108 10.2177C11.7589 10.099 11.7341 9.97061 11.7379 9.84119C11.7384 9.65748 11.7923 9.47778 11.8929 9.32411C12.0069 9.15268 12.1696 9.01948 12.36 8.94129C12.6325 8.83694 12.9235 8.78947 13.215 8.80213C13.5719 8.77832 13.9272 8.86707 14.231 9.05604C14.3535 9.15298 14.4539 9.27514 14.5256 9.41395C14.5974 9.55275 14.6388 9.70519 14.647 9.86121L13.6349 9.92225C13.6216 9.78937 13.5614 9.66547 13.465 9.57313C13.3629 9.49519 13.2361 9.45663 13.1079 9.46424C13.0073 9.45691 12.9073 9.48568 12.8259 9.5453C12.796 9.56925 12.7718 9.59951 12.7554 9.63416C12.7389 9.66881 12.7306 9.70665 12.731 9.745C12.7318 9.77495 12.7393 9.80429 12.7529 9.83094C12.7666 9.8576 12.7861 9.88119 12.8099 9.8993C12.9192 9.96884 13.0424 10.0131 13.1709 10.0292C13.5185 10.0935 13.8572 10.1989 14.1799 10.3431C14.3619 10.4304 14.5155 10.5673 14.6229 10.7382C14.7158 10.8974 14.7636 11.0788 14.761 11.2631C14.7622 11.487 14.6979 11.7062 14.5759 11.8939C14.4505 12.0877 14.2707 12.2401 14.059 12.3319C13.7936 12.439 13.5089 12.4901 13.2229 12.4813C12.7812 12.5275 12.3391 12.3986 11.991 12.1229V12.1239ZM28.4049 12.4139L27.105 10.4613V12.4139H26.095V8.85926H27.095L28.4039 10.8261V8.85926H29.4159V12.4139H28.4049ZM24.5299 12.4139L23.9559 11.327C23.9097 11.224 23.8435 11.1312 23.761 11.0541C23.684 10.9991 23.5915 10.97 23.4969 10.9711H23.402V12.4139H22.3229V8.85926H24.1119C24.3686 8.84919 24.6252 8.87844 24.8729 8.94618C25.0469 9.00301 25.1966 9.11655 25.298 9.26893C25.4091 9.44001 25.4653 9.64117 25.459 9.8451C25.4635 10.0233 25.421 10.1997 25.3359 10.3563C25.2535 10.4987 25.1366 10.6177 24.996 10.703C24.8785 10.7698 24.7512 10.8178 24.6189 10.8451C24.7181 10.8744 24.8125 10.9181 24.8989 10.975C24.9632 11.0306 25.0206 11.0937 25.0699 11.163C25.127 11.2314 25.1776 11.3053 25.2209 11.3832L25.741 12.4139H24.5299ZM23.403 10.2982H23.856C23.9519 10.2913 24.047 10.2749 24.1399 10.2499C24.2096 10.2356 24.2716 10.1962 24.314 10.139C24.3591 10.0796 24.383 10.0067 24.382 9.93202C24.3851 9.88266 24.377 9.83334 24.3585 9.78748C24.34 9.74163 24.3114 9.70025 24.2749 9.66688C24.1552 9.59334 24.0146 9.56153 23.8749 9.57606H23.403V10.2982ZM18.803 12.4139V8.85926H21.6809V9.61805H19.881V10.183H21.553V10.9091H19.881V11.6093H21.736V12.4139H18.803ZM16.1509 12.4139V9.73719H15.0559V8.85926H18.3209V9.73719H17.2209V12.4139H16.1509ZM8.28589 12.4139V8.85926H11.1639V9.61805H9.36389V10.183H11.0349V10.9091H9.35596V11.6093H11.209V12.4139H8.28589ZM6.1189 12.4139L5.50989 10.1752L4.90295 12.4139H3.84998L3.0769 8.85926H4.09692L4.46399 10.849L5.00195 8.85926H6.01794L6.55688 10.8471L6.92395 8.85926H7.93896L7.17297 12.4139H6.1189Z" fill="#ECD345"/>
<path d="M34.2058 17.1763V8.79639H35.4058V17.1763H34.2058ZM31.2158 17.1763V8.79639H32.4158V17.1763H31.2158Z" fill="#ECD345"/>
<defs>
<linearGradient id="paint0_linear_8_527" x1="193.351" y1="25.3613" x2="193.351" y2="0.219238" gradientUnits="userSpaceOnUse">
<stop stop-color="#E59703"/>
<stop offset="0.231" stop-color="#E59703"/>
<stop offset="0.234" stop-color="white"/>
<stop offset="0.761" stop-color="white"/>
<stop offset="0.766" stop-color="#5457BB"/>
<stop offset="1" stop-color="#5457BB"/>
</linearGradient>
</defs>
</svg>
